<svg width="124" height="37" viewBox="0 0 124 37" fill="none" xmlns="http://www.w3.org/2000/svg">
<path d="M18.7529 0.157349C25.7653 1.2217 31.0774 7.60209 31.1904 15.5402C31.8494 15.9091 32.4688 16.3549 33.0107 16.8673C36.7219 20.3763 37.0512 26.4645 33.5859 30.4259C30.6382 34.0829 25.5022 34.4607 21.6807 31.8712C20.7502 32.2366 19.7709 32.4971 18.7529 32.6388V27.8722C19.6595 27.6869 20.5266 27.376 21.3428 26.963L26.8994 15.3322C27.2375 14.8656 27.5053 14.5525 27.8809 14.4698C27.4379 8.84157 23.653 4.28366 18.7529 3.28235V0.157349Z" fill="#FFBC1F"/>
<mask id="path-2-outside-1_662_1765" maskUnits="userSpaceOnUse" x="4.19238" y="9.70679" width="28" height="27" fill="black">
<rect fill="white" x="4.19238" y="9.70679" width="28" height="27"/>
<path d="M24.8662 10.7332C27.5017 10.4599 29.8511 12.3759 30.1143 15.0125L31.3105 26.9919C31.5735 29.6284 29.6501 31.9872 27.0146 32.2605L25.2988 32.4382L21.1738 35.9187C20.9648 36.0951 20.6446 35.9666 20.6162 35.6951L20.3291 32.9529L11.6611 33.8523C9.02554 34.1256 6.67525 32.2096 6.41211 29.573L5.2168 17.5945C4.95365 14.9579 6.87711 12.5982 9.5127 12.325L24.8662 10.7332Z"/>
</mask>
<path d="M24.8662 10.7332C27.5017 10.4599 29.8511 12.3759 30.1143 15.0125L31.3105 26.9919C31.5735 29.6284 29.6501 31.9872 27.0146 32.2605L25.2988 32.4382L21.1738 35.9187C20.9648 36.0951 20.6446 35.9666 20.6162 35.6951L20.3291 32.9529L11.6611 33.8523C9.02554 34.1256 6.67525 32.2096 6.41211 29.573L5.2168 17.5945C4.95365 14.9579 6.87711 12.5982 9.5127 12.325L24.8662 10.7332Z" fill="white"/>
<path d="M24.8662 10.7332L24.8507 10.584L24.8507 10.584L24.8662 10.7332ZM30.1143 15.0125L29.965 15.0273L29.965 15.0274L30.1143 15.0125ZM31.3105 26.9919L31.4598 26.9771L31.4598 26.977L31.3105 26.9919ZM27.0146 32.2605L27.0301 32.4097L27.0301 32.4097L27.0146 32.2605ZM25.2988 32.4382L25.2834 32.289L25.2374 32.2938L25.2021 32.3236L25.2988 32.4382ZM21.1738 35.9187L21.0771 35.8041L21.0771 35.8041L21.1738 35.9187ZM20.6162 35.6951L20.7654 35.6795L20.7654 35.6794L20.6162 35.6951ZM20.3291 32.9529L20.4783 32.9373L20.4627 32.7882L20.3136 32.8037L20.3291 32.9529ZM11.6611 33.8523L11.6766 34.0015L11.6766 34.0015L11.6611 33.8523ZM6.41211 29.573L6.26285 29.5879L6.26285 29.5879L6.41211 29.573ZM5.2168 17.5945L5.36606 17.5796L5.36606 17.5796L5.2168 17.5945ZM9.5127 12.325L9.49723 12.1758L9.49722 12.1758L9.5127 12.325ZM24.8662 10.7332L24.8817 10.8824C27.4346 10.6177 29.7101 12.4734 29.965 15.0273L30.1143 15.0125L30.2635 14.9976C29.9921 12.2783 27.5689 10.3022 24.8507 10.584L24.8662 10.7332ZM30.1143 15.0125L29.965 15.0274L31.1613 27.0068L31.3105 26.9919L31.4598 26.977L30.2635 14.9975L30.1143 15.0125ZM31.3105 26.9919L31.1613 27.0068C31.416 29.5611 29.5525 31.8465 26.9992 32.1113L27.0146 32.2605L27.0301 32.4097C29.7477 32.1279 31.731 29.6957 31.4598 26.9771L31.3105 26.9919ZM27.0146 32.2605L26.9992 32.1113L25.2834 32.289L25.2988 32.4382L25.3143 32.5874L27.0301 32.4097L27.0146 32.2605ZM25.2988 32.4382L25.2021 32.3236L21.0771 35.8041L21.1738 35.9187L21.2706 36.0333L25.3956 32.5529L25.2988 32.4382ZM21.1738 35.9187L21.0771 35.8041C20.9596 35.9032 20.7812 35.8307 20.7654 35.6795L20.6162 35.6951L20.467 35.7107C20.508 36.1026 20.97 36.287 21.2706 36.0333L21.1738 35.9187ZM20.6162 35.6951L20.7654 35.6794L20.4783 32.9373L20.3291 32.9529L20.1799 32.9685L20.467 35.7107L20.6162 35.6951ZM20.3291 32.9529L20.3136 32.8037L11.6457 33.7031L11.6611 33.8523L11.6766 34.0015L20.3446 33.1021L20.3291 32.9529ZM11.6611 33.8523L11.6457 33.7031C9.09269 33.9678 6.81626 32.1121 6.56137 29.5581L6.41211 29.573L6.26285 29.5879C6.53425 32.3072 8.9584 34.2833 11.6766 34.0015L11.6611 33.8523ZM6.41211 29.573L6.56137 29.5581L5.36606 17.5796L5.2168 17.5945L5.06754 17.6094L6.26285 29.5879L6.41211 29.573ZM5.2168 17.5945L5.36606 17.5796C5.11111 15.0252 6.97477 12.7389 9.52817 12.4742L9.5127 12.325L9.49722 12.1758C6.77944 12.4576 4.79619 14.8906 5.06754 17.6094L5.2168 17.5945ZM9.5127 12.325L9.52816 12.4742L24.8817 10.8824L24.8662 10.7332L24.8507 10.584L9.49723 12.1758L9.5127 12.325Z" fill="#AEAEAE" mask="url(#path-2-outside-1_662_1765)"/>
<path d="M12.7602 20.2136C12.7368 19.9599 12.9234 19.7345 13.177 19.7102C13.4306 19.6858 13.6552 19.8717 13.6786 20.1254L14.2827 26.6604C14.3061 26.9141 14.1195 27.1395 13.8659 27.1639C13.6123 27.1882 13.3877 27.0023 13.3643 26.7486L12.7602 20.2136Z" fill="#FFBC1F"/>
<path d="M16.1476 24.8896L15.7958 21.084C15.7724 20.8304 15.5478 20.6444 15.2942 20.6688C15.0405 20.6931 14.854 20.9185 14.8774 21.1722L15.2292 24.9778C15.2526 25.2315 15.4772 25.4174 15.7308 25.393C15.9844 25.3687 16.171 25.1433 16.1476 24.8896Z" fill="#FFBC1F"/>
<rect width="0.922612" height="4.81331" rx="0.461306" transform="matrix(0.995421 -0.0955927 0.0920397 0.995755 16.751 20.3331)" fill="#FFBC1F"/>
<rect width="0.922612" height="9.04385" rx="0.461306" transform="matrix(0.995421 -0.0955927 0.0920397 0.995755 18.7686 17.9891)" fill="#FFBC1F"/>
<rect width="0.922612" height="11.0173" rx="0.461306" transform="matrix(0.995421 -0.0955927 0.0920397 0.995755 25.1309 16.3484)" fill="#FFBC1F"/>
<rect width="0.922612" height="5.97308" rx="0.461306" transform="matrix(0.995421 -0.0955927 0.0920397 0.995755 23.2148 19.083)" fill="#FFBC1F"/>
<rect width="0.922612" height="4.83099" rx="0.461306" transform="matrix(0.995421 -0.0955927 0.0920397 0.995755 21.1445 19.8902)" fill="#FFBC1F"/>
<path d="M16.5059 0.000976562C17.2707 -0.00805636 18.0221 0.0452054 18.7539 0.15625V3.28223C18.0955 3.14774 17.4159 3.07719 16.7227 3.07715C10.7143 3.03431 5.67441 8.61462 5.42969 15.5771C5.4297 16.0626 5.45546 16.5417 5.50488 17.0127C6.6152 16.5087 7.83809 16.2286 9.12109 16.2285C9.60978 16.2581 9.95099 16.4818 10.3994 17.166L14.5889 32.3496C14.6489 33.0176 14.6442 33.4683 14.2949 33.8076C12.8323 34.828 11.0189 35.5009 9.18555 35.501C4.16916 35.501 0.000146822 31.1071 0 25.7998C0 23.2024 0.984177 20.8557 2.57617 19.1357C2.40583 18.2373 2.29885 17.317 2.26172 16.3828C2.23182 7.12692 8.38223 0.0847981 16.5059 0.000976562Z" fill="#FFBC1F"/>
<path d="M52.4609 11.8555L47.8203 26H44.082L50.4219 8.9375H52.8008L52.4609 11.8555ZM56.3164 26L51.6641 11.8555L51.2891 8.9375H53.6914L60.0664 26H56.3164ZM56.1055 19.6484V22.4023H47.0938V19.6484H56.1055ZM66.6758 23.5977C67.0898 23.5977 67.457 23.5195 67.7773 23.3633C68.0977 23.1992 68.3477 22.9727 68.5273 22.6836C68.7148 22.3867 68.8125 22.0391 68.8203 21.6406H71.9961C71.9883 22.5312 71.75 23.3242 71.2812 24.0195C70.8125 24.707 70.1836 25.25 69.3945 25.6484C68.6055 26.0391 67.7227 26.2344 66.7461 26.2344C65.7617 26.2344 64.9023 26.0703 64.168 25.7422C63.4414 25.4141 62.8359 24.9609 62.3516 24.3828C61.8672 23.7969 61.5039 23.1172 61.2617 22.3438C61.0195 21.5625 60.8984 20.7266 60.8984 19.8359V19.4961C60.8984 18.5977 61.0195 17.7617 61.2617 16.9883C61.5039 16.207 61.8672 15.5273 62.3516 14.9492C62.8359 14.3633 63.4414 13.9062 64.168 13.5781C64.8945 13.25 65.7461 13.0859 66.7227 13.0859C67.7617 13.0859 68.6719 13.2852 69.4531 13.6836C70.2422 14.082 70.8594 14.6523 71.3047 15.3945C71.7578 16.1289 71.9883 17 71.9961 18.0078H68.8203C68.8125 17.5859 68.7227 17.2031 68.5508 16.8594C68.3867 16.5156 68.1445 16.2422 67.8242 16.0391C67.5117 15.8281 67.125 15.7227 66.6641 15.7227C66.1719 15.7227 65.7695 15.8281 65.457 16.0391C65.1445 16.2422 64.9023 16.5234 64.7305 16.8828C64.5586 17.2344 64.4375 17.6367 64.3672 18.0898C64.3047 18.5352 64.2734 19.0039 64.2734 19.4961V19.8359C64.2734 20.3281 64.3047 20.8008 64.3672 21.2539C64.4297 21.707 64.5469 22.1094 64.7188 22.4609C64.8984 22.8125 65.1445 23.0898 65.457 23.293C65.7695 23.4961 66.1758 23.5977 66.6758 23.5977ZM80.1641 13.3203V15.7109H72.7812V13.3203H80.1641ZM74.6094 10.1914H77.9844V22.1797C77.9844 22.5469 78.0312 22.8281 78.125 23.0234C78.2266 23.2188 78.375 23.3555 78.5703 23.4336C78.7656 23.5039 79.0117 23.5391 79.3086 23.5391C79.5195 23.5391 79.707 23.5312 79.8711 23.5156C80.043 23.4922 80.1875 23.4688 80.3047 23.4453L80.3164 25.9297C80.0273 26.0234 79.7148 26.0977 79.3789 26.1523C79.043 26.207 78.6719 26.2344 78.2656 26.2344C77.5234 26.2344 76.875 26.1133 76.3203 25.8711C75.7734 25.6211 75.3516 25.2227 75.0547 24.6758C74.7578 24.1289 74.6094 23.4102 74.6094 22.5195V10.1914ZM88.9414 19.918H84.5938V17.1758H88.9414C89.6133 17.1758 90.1602 17.0664 90.582 16.8477C91.0039 16.6211 91.3125 16.3086 91.5078 15.9102C91.7031 15.5117 91.8008 15.0625 91.8008 14.5625C91.8008 14.0547 91.7031 13.582 91.5078 13.1445C91.3125 12.707 91.0039 12.3555 90.582 12.0898C90.1602 11.8242 89.6133 11.6914 88.9414 11.6914H85.8125V26H82.2969V8.9375H88.9414C90.2773 8.9375 91.4219 9.17969 92.375 9.66406C93.3359 10.1406 94.0703 10.8008 94.5781 11.6445C95.0859 12.4883 95.3398 13.4531 95.3398 14.5391C95.3398 15.6406 95.0859 16.5938 94.5781 17.3984C94.0703 18.2031 93.3359 18.8242 92.375 19.2617C91.4219 19.6992 90.2773 19.918 88.9414 19.918ZM96.8516 19.7891V19.543C96.8516 18.6133 96.9844 17.7578 97.25 16.9766C97.5156 16.1875 97.9023 15.5039 98.4102 14.9258C98.918 14.3477 99.543 13.8984 100.285 13.5781C101.027 13.25 101.879 13.0859 102.84 13.0859C103.801 13.0859 104.656 13.25 105.406 13.5781C106.156 13.8984 106.785 14.3477 107.293 14.9258C107.809 15.5039 108.199 16.1875 108.465 16.9766C108.73 17.7578 108.863 18.6133 108.863 19.543V19.7891C108.863 20.7109 108.73 21.5664 108.465 22.3555C108.199 23.1367 107.809 23.8203 107.293 24.4062C106.785 24.9844 106.16 25.4336 105.418 25.7539C104.676 26.0742 103.824 26.2344 102.863 26.2344C101.902 26.2344 101.047 26.0742 100.297 25.7539C99.5547 25.4336 98.9258 24.9844 98.4102 24.4062C97.9023 23.8203 97.5156 23.1367 97.25 22.3555C96.9844 21.5664 96.8516 20.7109 96.8516 19.7891ZM100.227 19.543V19.7891C100.227 20.3203 100.273 20.8164 100.367 21.2773C100.461 21.7383 100.609 22.1445 100.812 22.4961C101.023 22.8398 101.297 23.1094 101.633 23.3047C101.969 23.5 102.379 23.5977 102.863 23.5977C103.332 23.5977 103.734 23.5 104.07 23.3047C104.406 23.1094 104.676 22.8398 104.879 22.4961C105.082 22.1445 105.23 21.7383 105.324 21.2773C105.426 20.8164 105.477 20.3203 105.477 19.7891V19.543C105.477 19.0273 105.426 18.543 105.324 18.0898C105.23 17.6289 105.078 17.2227 104.867 16.8711C104.664 16.5117 104.395 16.2305 104.059 16.0273C103.723 15.8242 103.316 15.7227 102.84 15.7227C102.363 15.7227 101.957 15.8242 101.621 16.0273C101.293 16.2305 101.023 16.5117 100.812 16.8711C100.609 17.2227 100.461 17.6289 100.367 18.0898C100.273 18.543 100.227 19.0273 100.227 19.543ZM118.426 23.2344V8H121.824V26H118.766L118.426 23.2344ZM110.41 19.8125V19.5664C110.41 18.5977 110.52 17.7188 110.738 16.9297C110.957 16.1328 111.277 15.4492 111.699 14.8789C112.121 14.3086 112.641 13.8672 113.258 13.5547C113.875 13.2422 114.578 13.0859 115.367 13.0859C116.109 13.0859 116.758 13.2422 117.312 13.5547C117.875 13.8672 118.352 14.3125 118.742 14.8906C119.141 15.4609 119.461 16.1367 119.703 16.918C119.945 17.6914 120.121 18.5391 120.23 19.4609V20C120.121 20.8828 119.945 21.7031 119.703 22.4609C119.461 23.2188 119.141 23.8828 118.742 24.4531C118.352 25.0156 117.875 25.4531 117.312 25.7656C116.75 26.0781 116.094 26.2344 115.344 26.2344C114.555 26.2344 113.852 26.0742 113.234 25.7539C112.625 25.4336 112.109 24.9844 111.688 24.4062C111.273 23.8281 110.957 23.1484 110.738 22.3672C110.52 21.5859 110.41 20.7344 110.41 19.8125ZM113.785 19.5664V19.8125C113.785 20.3359 113.824 20.8242 113.902 21.2773C113.988 21.7305 114.125 22.1328 114.312 22.4844C114.508 22.8281 114.758 23.0977 115.062 23.293C115.375 23.4805 115.754 23.5742 116.199 23.5742C116.777 23.5742 117.254 23.4453 117.629 23.1875C118.004 22.9219 118.289 22.5586 118.484 22.0977C118.688 21.6367 118.805 21.1055 118.836 20.5039V18.9688C118.812 18.4766 118.742 18.0352 118.625 17.6445C118.516 17.2461 118.352 16.9062 118.133 16.625C117.922 16.3438 117.656 16.125 117.336 15.9688C117.023 15.8125 116.652 15.7344 116.223 15.7344C115.785 15.7344 115.41 15.8359 115.098 16.0391C114.785 16.2344 114.531 16.5039 114.336 16.8477C114.148 17.1914 114.008 17.5977 113.914 18.0664C113.828 18.5273 113.785 19.0273 113.785 19.5664Z" fill="#FFBC1F"/>
</svg>
